<svg width="18" height="18" viewBox="0 0 18 18" fill="none" xmlns="http://www.w3.org/2000/svg">
<path d="M0.615036 0.615036C0.731151 0.498628 0.86909 0.406271 1.02095 0.343255C1.17282 0.280239 1.33562 0.247803 1.50004 0.247803C1.66445 0.247803 1.82726 0.280239 1.97912 0.343255C2.13098 0.406271 2.26892 0.498628 2.38504 0.615036L9.00004 7.23254L15.615 0.615036C15.7313 0.498817 15.8692 0.406626 16.0211 0.343728C16.1729 0.28083 16.3357 0.248457 16.5 0.248457C16.6644 0.248457 16.8271 0.28083 16.979 0.343728C17.1308 0.406626 17.2688 0.498817 17.385 0.615036C17.5013 0.731256 17.5934 0.869229 17.6563 1.02108C17.7192 1.17293 17.7516 1.33568 17.7516 1.50004C17.7516 1.6644 17.7192 1.82715 17.6563 1.979C17.5934 2.13084 17.5013 2.26882 17.385 2.38504L10.7675 9.00004L17.385 15.615C17.5013 15.7313 17.5934 15.8692 17.6563 16.0211C17.7192 16.1729 17.7516 16.3357 17.7516 16.5C17.7516 16.6644 17.7192 16.8271 17.6563 16.979C17.5934 17.1308 17.5013 17.2688 17.385 17.385C17.2688 17.5013 17.1308 17.5934 16.979 17.6563C16.8271 17.7192 16.6644 17.7516 16.5 17.7516C16.3357 17.7516 16.1729 17.7192 16.0211 17.6563C15.8692 17.5934 15.7313 17.5013 15.615 17.385L9.00004 10.7675L2.38504 17.385C2.26882 17.5013 2.13084 17.5934 1.979 17.6563C1.82715 17.7192 1.6644 17.7516 1.50004 17.7516C1.33568 17.7516 1.17293 17.7192 1.02108 17.6563C0.869229 17.5934 0.731256 17.5013 0.615036 17.385C0.498817 17.2688 0.406626 17.1308 0.343728 16.979C0.28083 16.8271 0.248457 16.6644 0.248457 16.5C0.248457 16.3357 0.28083 16.1729 0.343728 16.0211C0.406626 15.8692 0.498817 15.7313 0.615036 15.615L7.23254 9.00004L0.615036 2.38504C0.498628 2.26892 0.406271 2.13098 0.343255 1.97912C0.280239 1.82726 0.247803 1.66445 0.247803 1.50004C0.247803 1.33562 0.280239 1.17282 0.343255 1.02095C0.406271 0.86909 0.498628 0.731151 0.615036 0.615036Z" fill="black"/>
</svg>
